# xmcd
#
# Track frame offsets:
# 150
# 9720
# 26523
# 35392
# 47223
# 60747
# 71101
# 81316
# 89799
# 105749
# 108261
# 121067
# 132549
#
# Disc length: 1849 seconds
#
# Revision: 1
# Processed by: cddbd v1.5.2PL0 Copyright (c) Steve Scherf et al.
# Submitted via: CedeCatalogueitor 2.6.0.6 http://personales.ya.com/cdcatalogueitor
#
DISCID=b607370d
DTITLE=Laura Veirs - Tumble Bee
DYEAR=1900
DGENRE=
TTITLE0=Little Lap Dog Lullaby
TTITLE1=Praire Lullaby
TTITLE2=Jack Can I Ride
TTITLE3=Tumble Bee
TTITLE4=King Kong Kitchie
TTITLE5=All The Pretty Little Horses
TTITLE6=The Fox
TTITLE7=Jump Down Spin Around
TTITLE8=Why Oh Why
TTITLE9=Down In The Medder
TTITLE10=Soldier's Joy
TTITLE11=Jamaia Farewell
TTITLE12=Pairie Dream
EXTD=
EXTT0=
EXTT1=
EXTT2=
EXTT3=
EXTT4=
EXTT5=
EXTT6=
EXTT7=
EXTT8=
EXTT9=
EXTT10=
EXTT11=
EXTT12=
PLAYORDER=
